<svg width="64" height="64" viewBox="0 0 64 64" fill="none" xmlns="http://www.w3.org/2000/svg">
<g filter="url(#filter0_d_159_19126)">
<rect x="7" y="3" width="50" height="50" rx="16" fill="url(#paint0_linear_159_19126)" shape-rendering="crispEdges"/>
</g>
<path d="M25 12.0002C25.8284 12.0002 26.5001 12.6716 26.5001 13.5001V15H38.4997V13.5001C38.4997 12.6716 39.1714 12.0002 39.9999 12.0002C40.8283 12.0002 41.4998 12.6716 41.4998 13.5001V15H42.9997C45.4853 15 47.4997 17.0147 47.4997 19.5V28.5C47.4997 29.3284 46.8283 30.0002 45.9998 30.0002H41.4998C38.1861 30.0002 35.4999 32.6863 35.4999 36.0001V40.5001C35.4999 41.3285 34.8282 42 33.9997 42H22.0001C19.5149 42 17.5001 39.9855 17.5001 37.5V19.5C17.5001 17.0147 19.5149 15 22.0001 15H23.5001V13.5001C23.5001 12.6716 24.1715 12.0002 25 12.0002Z" fill="#FDFDFD"/>
<path d="M46.0004 37.4998C46.8288 37.4998 47.5003 36.8283 47.5003 35.9998C47.5003 35.1714 46.8288 34.4999 46.0004 34.4999H40.0005C39.172 34.4999 38.5003 35.1714 38.5003 35.9998C38.5003 36.8283 39.172 37.4998 40.0005 37.4998H46.0004Z" fill="#FDFDFD"/>
<defs>
<filter id="filter0_d_159_19126" x="0" y="0" width="64" height="64" filterUnits="userSpaceOnUse" color-interpolation-filters="sRGB">
<feFlood flood-opacity="0" result="BackgroundImageFix"/>
<feColorMatrix in="SourceAlpha" type="matrix" values="0 0 0 0 0 0 0 0 0 0 0 0 0 0 0 0 0 0 127 0" result="hardAlpha"/>
<feOffset dy="4"/>
<feGaussianBlur stdDeviation="3.5"/>
<feComposite in2="hardAlpha" operator="out"/>
<feColorMatrix type="matrix" values="0 0 0 0 0.795833 0 0 0 0 0.60667 0 0 0 0 0.112743 0 0 0 0.2 0"/>
<feBlend mode="normal" in2="BackgroundImageFix" result="effect1_dropShadow_159_19126"/>
<feBlend mode="normal" in="SourceGraphic" in2="effect1_dropShadow_159_19126" result="shape"/>
</filter>
<linearGradient id="paint0_linear_159_19126" x1="46.5" y1="46.5" x2="-34.5" y2="-55" gradientUnits="userSpaceOnUse">
<stop stop-color="#FEC32A"/>
<stop offset="1" stop-color="white" stop-opacity="0"/>
</linearGradient>
</defs>
</svg>
