<svg width="22" height="16" viewBox="0 0 22 16" fill="none" xmlns="http://www.w3.org/2000/svg">
<path d="M13.9898 12.3557L18.4744 7.87116L13.9898 3.38663C13.5391 2.93586 13.5391 2.2077 13.9898 1.75694C14.4406 1.30617 15.1688 1.30617 15.6195 1.75694L20.9247 7.0621C21.3755 7.51286 21.3755 8.24102 20.9247 8.69179L15.6195 13.9969C15.1688 14.4477 14.4406 14.4477 13.9898 13.9969C13.5506 13.5462 13.5391 12.8065 13.9898 12.3557Z" fill="#72B8FF"/>
<path d="M3.8568 4.37151H8.82454M3.8568 6.85538H8.82454M3.8568 9.33925H5.7197M2.61486 14.307H10.0665C10.7524 14.307 11.3084 13.751 11.3084 13.0651V3.12957C11.3084 2.44367 10.7524 1.88763 10.0665 1.88763H2.61486C1.92896 1.88763 1.37292 2.44367 1.37292 3.12957V13.0651C1.37292 13.751 1.92896 14.307 2.61486 14.307Z" stroke="#72B8FF" stroke-width="1.84884" stroke-linecap="round" stroke-linejoin="round"/>
</svg>
