<svg width="147" height="39" viewBox="0 0 147 39" fill="none" xmlns="http://www.w3.org/2000/svg">
<path d="M111.952 24.2032L111.774 24.3997V20.5805H112.56V24.3997L112.37 24.2032H114.328L114.138 24.3997V20.5805H114.924V24.8787H109.404V20.5805H110.19V24.3997L110.006 24.2032H111.952ZM118.397 24.8787L117.212 23.3068L117.839 22.9199L119.3 24.8787H118.397ZM116.046 24.8787V21.5998H116.813V24.8787H116.046ZM116.586 23.5646V22.9261H117.697V23.5646H116.586ZM117.912 23.3313L117.194 23.2454L118.397 21.5998H119.22L117.912 23.3313ZM121.195 24.9216C120.859 24.9216 120.56 24.85 120.298 24.7067C120.036 24.5594 119.83 24.3588 119.678 24.105C119.527 23.8512 119.451 23.5626 119.451 23.2392C119.451 22.9117 119.527 22.6231 119.678 22.3734C119.83 22.1196 120.036 21.9211 120.298 21.7778C120.56 21.6346 120.859 21.5629 121.195 21.5629C121.534 21.5629 121.835 21.6346 122.097 21.7778C122.363 21.9211 122.57 22.1176 122.717 22.3673C122.869 22.617 122.945 22.9076 122.945 23.2392C122.945 23.5626 122.869 23.8512 122.717 24.105C122.57 24.3588 122.363 24.5594 122.097 24.7067C121.835 24.85 121.534 24.9216 121.195 24.9216ZM121.195 24.2646C121.383 24.2646 121.551 24.2237 121.698 24.1418C121.846 24.06 121.96 23.9413 122.042 23.7857C122.128 23.6301 122.171 23.448 122.171 23.2392C122.171 23.0264 122.128 22.8442 122.042 22.6927C121.96 22.5372 121.846 22.4185 121.698 22.3366C121.551 22.2547 121.385 22.2138 121.201 22.2138C121.013 22.2138 120.845 22.2547 120.697 22.3366C120.554 22.4185 120.439 22.5372 120.353 22.6927C120.268 22.8442 120.225 23.0264 120.225 23.2392C120.225 23.448 120.268 23.6301 120.353 23.7857C120.439 23.9413 120.554 24.06 120.697 24.1418C120.845 24.2237 121.01 24.2646 121.195 24.2646ZM123.188 24.8725L123.225 24.2278C123.253 24.2319 123.28 24.236 123.305 24.2401C123.329 24.2442 123.352 24.2462 123.372 24.2462C123.499 24.2462 123.597 24.2073 123.667 24.1296C123.736 24.0518 123.788 23.9474 123.82 23.8164C123.857 23.6813 123.882 23.5319 123.894 23.3682C123.91 23.2003 123.923 23.0325 123.931 22.8647L123.986 21.5998H126.639V24.8787H125.871V22.0419L126.049 22.2506H124.49L124.655 22.0357L124.613 22.9015C124.6 23.1921 124.576 23.4623 124.539 23.712C124.506 23.9576 124.453 24.1725 124.379 24.3567C124.31 24.5409 124.211 24.6842 124.084 24.7866C123.962 24.8889 123.804 24.9401 123.612 24.9401C123.55 24.9401 123.483 24.9339 123.409 24.9216C123.339 24.9094 123.266 24.893 123.188 24.8725ZM129.318 22.6805C129.74 22.6805 130.061 22.7746 130.282 22.9629C130.503 23.1512 130.614 23.4173 130.614 23.7611C130.614 24.1173 130.491 24.3956 130.245 24.5962C130 24.7927 129.654 24.8889 129.208 24.8848L127.672 24.8787V21.5998H128.44V22.6743L129.318 22.6805ZM129.14 24.3199C129.365 24.324 129.537 24.2769 129.656 24.1787C129.774 24.0804 129.834 23.9372 129.834 23.7489C129.834 23.5606 129.774 23.4255 129.656 23.3436C129.541 23.2576 129.369 23.2126 129.14 23.2085L128.44 23.2024V24.3138L129.14 24.3199ZM131.288 24.8787V21.5998H132.056V22.9322H133.708V21.5998H134.475V24.8787H133.708V23.5831H132.056V24.8787H131.288ZM138.813 24.8787V21.5998H139.581V24.8787H138.813ZM137.1 22.6805C137.522 22.6805 137.841 22.7746 138.058 22.9629C138.279 23.1512 138.39 23.4173 138.39 23.7611C138.39 24.1173 138.267 24.3956 138.021 24.5962C137.78 24.7927 137.436 24.8889 136.99 24.8848L135.504 24.8787V21.5998H136.271V22.6743L137.1 22.6805ZM136.922 24.3199C137.147 24.324 137.319 24.2769 137.438 24.1787C137.557 24.0804 137.616 23.9372 137.616 23.7489C137.616 23.5606 137.557 23.4255 137.438 23.3436C137.323 23.2576 137.151 23.2126 136.922 23.2085L136.271 23.2024V24.3138L136.922 24.3199ZM140.613 24.8787V21.5998H141.38V23.7611L143.191 21.5998H143.891V24.8787H143.124V22.7173L141.319 24.8787H140.613ZM142.203 21.2129C141.875 21.2129 141.624 21.1372 141.448 20.9857C141.272 20.8302 141.182 20.6051 141.177 20.3103H141.687C141.691 20.4577 141.736 20.5743 141.822 20.6603C141.912 20.7463 142.037 20.7893 142.197 20.7893C142.352 20.7893 142.475 20.7463 142.565 20.6603C142.659 20.5743 142.708 20.4577 142.713 20.3103H143.234C143.23 20.6051 143.138 20.8302 142.958 20.9857C142.782 21.1372 142.53 21.2129 142.203 21.2129ZM109.312 30.8787V27.5998H110.079V28.9322H111.731V27.5998H112.498V30.8787H111.731V29.5831H110.079V30.8787H109.312ZM115.517 30.8787V30.2155L115.474 30.0743V28.9138C115.474 28.6886 115.406 28.5147 115.271 28.3919C115.136 28.265 114.931 28.2015 114.657 28.2015C114.473 28.2015 114.291 28.2302 114.11 28.2875C113.934 28.3448 113.785 28.4246 113.662 28.5269L113.361 27.9682C113.537 27.8331 113.746 27.7328 113.988 27.6673C114.233 27.5977 114.487 27.5629 114.749 27.5629C115.224 27.5629 115.59 27.6775 115.848 27.9068C116.11 28.1319 116.241 28.4819 116.241 28.9568V30.8787H115.517ZM114.485 30.9216C114.239 30.9216 114.024 30.8807 113.84 30.7988C113.656 30.7129 113.513 30.5962 113.41 30.4488C113.312 30.2974 113.263 30.1275 113.263 29.9392C113.263 29.755 113.306 29.5892 113.392 29.4418C113.482 29.2945 113.627 29.1778 113.828 29.0919C114.029 29.0059 114.295 28.9629 114.626 28.9629H115.578V29.4725H114.681C114.419 29.4725 114.243 29.5155 114.153 29.6015C114.063 29.6834 114.018 29.7857 114.018 29.9085C114.018 30.0477 114.074 30.1582 114.184 30.2401C114.295 30.3219 114.448 30.3629 114.645 30.3629C114.833 30.3629 115.001 30.3199 115.148 30.2339C115.3 30.148 115.408 30.0211 115.474 29.8532L115.603 30.3138C115.529 30.5062 115.396 30.6556 115.203 30.762C115.015 30.8684 114.776 30.9216 114.485 30.9216ZM117.191 30.8787V27.5998H118.793C119.191 27.5998 119.502 27.6735 119.727 27.8208C119.956 27.9682 120.071 28.177 120.071 28.4471C120.071 28.7132 119.964 28.922 119.751 29.0734C119.538 29.2208 119.256 29.2945 118.904 29.2945L118.996 29.1041C119.393 29.1041 119.688 29.1778 119.88 29.3252C120.077 29.4685 120.175 29.6793 120.175 29.9576C120.175 30.2483 120.067 30.4755 119.85 30.6392C119.633 30.7988 119.303 30.8787 118.861 30.8787H117.191ZM117.922 30.3199H118.8C119.008 30.3199 119.166 30.2872 119.272 30.2217C119.379 30.1521 119.432 30.0477 119.432 29.9085C119.432 29.7611 119.383 29.6527 119.285 29.5831C119.186 29.5135 119.033 29.4787 118.824 29.4787H117.922V30.3199ZM117.922 28.969H118.726C118.922 28.969 119.07 28.9343 119.168 28.8647C119.27 28.791 119.322 28.6886 119.322 28.5576C119.322 28.4226 119.27 28.3223 119.168 28.2568C119.07 28.1913 118.922 28.1585 118.726 28.1585H117.922V28.969ZM120.993 30.8787V27.5998H121.76V29.7611L123.571 27.5998H124.271V30.8787H123.504V28.7173L121.699 30.8787H120.993ZM125.304 30.8787V27.5998H127.821V28.2506H125.893L126.071 28.0787V30.8787H125.304ZM130.369 30.8787V30.2155L130.326 30.0743V28.9138C130.326 28.6886 130.259 28.5147 130.124 28.3919C129.989 28.265 129.784 28.2015 129.51 28.2015C129.326 28.2015 129.143 28.2302 128.963 28.2875C128.787 28.3448 128.638 28.4246 128.515 28.5269L128.214 27.9682C128.39 27.8331 128.599 27.7328 128.841 27.6673C129.086 27.5977 129.34 27.5629 129.602 27.5629C130.077 27.5629 130.443 27.6775 130.701 27.9068C130.963 28.1319 131.094 28.4819 131.094 28.9568V30.8787H130.369ZM129.338 30.9216C129.092 30.9216 128.877 30.8807 128.693 30.7988C128.509 30.7129 128.366 30.5962 128.263 30.4488C128.165 30.2974 128.116 30.1275 128.116 29.9392C128.116 29.755 128.159 29.5892 128.245 29.4418C128.335 29.2945 128.48 29.1778 128.681 29.0919C128.881 29.0059 129.148 28.9629 129.479 28.9629H130.431V29.4725H129.534C129.272 29.4725 129.096 29.5155 129.006 29.6015C128.916 29.6834 128.871 29.7857 128.871 29.9085C128.871 30.0477 128.927 30.1582 129.037 30.2401C129.148 30.3219 129.301 30.3629 129.498 30.3629C129.686 30.3629 129.854 30.3199 130.001 30.2339C130.153 30.148 130.261 30.0211 130.326 29.8532L130.455 30.3138C130.382 30.5062 130.249 30.6556 130.056 30.762C129.868 30.8684 129.629 30.9216 129.338 30.9216ZM132.725 30.8787V28.0664L132.903 28.2506H131.571V27.5998H134.641V28.2506H133.315L133.493 28.0664V30.8787H132.725ZM136.515 30.9216C136.18 30.9216 135.881 30.85 135.619 30.7067C135.357 30.5594 135.15 30.3588 134.999 30.105C134.847 29.8512 134.771 29.5626 134.771 29.2392C134.771 28.9117 134.847 28.6231 134.999 28.3734C135.15 28.1196 135.357 27.9211 135.619 27.7778C135.881 27.6346 136.18 27.5629 136.515 27.5629C136.855 27.5629 137.156 27.6346 137.418 27.7778C137.684 27.9211 137.891 28.1176 138.038 28.3673C138.19 28.617 138.265 28.9076 138.265 29.2392C138.265 29.5626 138.19 29.8512 138.038 30.105C137.891 30.3588 137.684 30.5594 137.418 30.7067C137.156 30.85 136.855 30.9216 136.515 30.9216ZM136.515 30.2646C136.704 30.2646 136.871 30.2237 137.019 30.1418C137.166 30.06 137.281 29.9413 137.363 29.7857C137.449 29.6301 137.492 29.448 137.492 29.2392C137.492 29.0264 137.449 28.8442 137.363 28.6927C137.281 28.5372 137.166 28.4185 137.019 28.3366C136.871 28.2547 136.706 28.2138 136.521 28.2138C136.333 28.2138 136.165 28.2547 136.018 28.3366C135.875 28.4185 135.76 28.5372 135.674 28.6927C135.588 28.8442 135.545 29.0264 135.545 29.2392C135.545 29.448 135.588 29.6301 135.674 29.7857C135.76 29.9413 135.875 30.06 136.018 30.1418C136.165 30.2237 136.331 30.2646 136.515 30.2646ZM140.841 30.9216C140.575 30.9216 140.331 30.8602 140.11 30.7374C139.893 30.6146 139.719 30.4304 139.588 30.1848C139.462 29.9351 139.398 29.6199 139.398 29.2392C139.398 28.8544 139.459 28.5392 139.582 28.2936C139.709 28.048 139.881 27.8658 140.098 27.7471C140.315 27.6243 140.563 27.5629 140.841 27.5629C141.164 27.5629 141.449 27.6325 141.695 27.7717C141.944 27.9109 142.141 28.1053 142.284 28.355C142.431 28.6047 142.505 28.8995 142.505 29.2392C142.505 29.579 142.431 29.8758 142.284 30.1296C142.141 30.3793 141.944 30.5737 141.695 30.7129C141.449 30.8521 141.164 30.9216 140.841 30.9216ZM139.024 32.0699V27.5998H139.754V28.3734L139.73 29.2454L139.791 30.1173V32.0699H139.024ZM140.755 30.2646C140.939 30.2646 141.103 30.2237 141.246 30.1418C141.394 30.06 141.51 29.9413 141.596 29.7857C141.682 29.6301 141.725 29.448 141.725 29.2392C141.725 29.0264 141.682 28.8442 141.596 28.6927C141.51 28.5372 141.394 28.4185 141.246 28.3366C141.103 28.2547 140.939 28.2138 140.755 28.2138C140.571 28.2138 140.405 28.2547 140.258 28.3366C140.11 28.4185 139.994 28.5372 139.908 28.6927C139.822 28.8442 139.779 29.0264 139.779 29.2392C139.779 29.448 139.822 29.6301 139.908 29.7857C139.994 29.9413 140.11 30.06 140.258 30.1418C140.405 30.2237 140.571 30.2646 140.755 30.2646Z" fill="#72B8FF"/>
<path d="M55.6362 17.262C54.4282 17.262 53.2565 17.1019 52.1213 16.7817C51.0005 16.4469 50.0982 16.0176 49.4141 15.4936L50.6149 12.8301C51.2698 13.3104 52.0485 13.6961 52.9509 13.9872C53.8533 14.2783 54.7557 14.4238 55.658 14.4238C56.6623 14.4238 57.4046 14.2783 57.8849 13.9872C58.3652 13.6815 58.6054 13.2813 58.6054 12.7864C58.6054 12.4226 58.4598 12.1242 58.1687 11.8913C57.8922 11.6439 57.5283 11.4474 57.0771 11.3019C56.6405 11.1563 56.0437 10.9962 55.2869 10.8215C54.1225 10.545 53.1692 10.2685 52.4269 9.99193C51.6846 9.71539 51.0442 9.27148 50.5057 8.66018C49.9817 8.04888 49.7197 7.23382 49.7197 6.215C49.7197 5.32716 49.9599 4.52666 50.4402 3.81348C50.9205 3.08575 51.641 2.51084 52.6016 2.08875C53.5767 1.66667 54.7629 1.45562 56.1602 1.45562C57.1353 1.45562 58.0887 1.57206 59.0202 1.80494C59.9517 2.03781 60.7667 2.37257 61.4653 2.80921L60.3737 5.49454C58.9619 4.69404 57.5501 4.29378 56.1383 4.29378C55.1486 4.29378 54.4136 4.45388 53.9333 4.77409C53.4676 5.09429 53.2347 5.51637 53.2347 6.04034C53.2347 6.56431 53.504 6.95729 54.0425 7.21927C54.5955 7.4667 55.4324 7.71413 56.5532 7.96156C57.7175 8.2381 58.6709 8.51463 59.4131 8.79117C60.1554 9.06771 60.7886 9.50435 61.3125 10.1011C61.851 10.6978 62.1203 11.5056 62.1203 12.5244C62.1203 13.3977 61.8729 14.1982 61.378 14.926C60.8977 15.6391 60.17 16.2068 59.1948 16.6289C58.2197 17.0509 57.0335 17.262 55.6362 17.262ZM71.8507 17.262C70.2934 17.262 68.8816 16.9272 67.6153 16.2577C66.3636 15.5736 65.3739 14.6349 64.6462 13.4414C63.933 12.2333 63.5764 10.8725 63.5764 9.3588C63.5764 7.84512 63.933 6.49154 64.6462 5.29805C65.3739 4.09002 66.3636 3.15124 67.6153 2.48173C68.8816 1.79766 70.3007 1.45562 71.8726 1.45562C73.197 1.45562 74.3905 1.6885 75.453 2.15425C76.53 2.62 77.4324 3.28951 78.1602 4.16279L75.8896 6.25866C74.8563 5.06518 73.5754 4.46844 72.0472 4.46844C71.1012 4.46844 70.257 4.67948 69.5147 5.10157C68.7724 5.5091 68.1902 6.08401 67.7681 6.82629C67.3606 7.56858 67.1568 8.41275 67.1568 9.3588C67.1568 10.3049 67.3606 11.149 67.7681 11.8913C68.1902 12.6336 68.7724 13.2158 69.5147 13.6379C70.257 14.0454 71.1012 14.2492 72.0472 14.2492C73.5754 14.2492 74.8563 13.6452 75.8896 12.4371L78.1602 14.533C77.4324 15.4208 76.53 16.0976 75.453 16.5634C74.376 17.0291 73.1752 17.262 71.8507 17.262ZM94.5647 1.71761V17H91.0279V10.7342H84.0853V17H80.5486V1.71761H84.0853V7.74324H91.0279V1.71761H94.5647ZM105.581 17.262C103.995 17.262 102.561 16.9199 101.281 16.2359C100.014 15.5518 99.0173 14.613 98.2896 13.4196C97.5764 12.2115 97.2198 10.8579 97.2198 9.3588C97.2198 7.85967 97.5764 6.51337 98.2896 5.31989C99.0173 4.11185 100.014 3.1658 101.281 2.48173C102.561 1.79766 103.995 1.45562 105.581 1.45562C107.168 1.45562 108.594 1.79766 109.861 2.48173C111.127 3.1658 112.124 4.11185 112.852 5.31989C113.579 6.51337 113.943 7.85967 113.943 9.3588C113.943 10.8579 113.579 12.2115 112.852 13.4196C112.124 14.613 111.127 15.5518 109.861 16.2359C108.594 16.9199 107.168 17.262 105.581 17.262ZM105.581 14.2492C106.484 14.2492 107.299 14.0454 108.027 13.6379C108.754 13.2158 109.322 12.6336 109.73 11.8913C110.152 11.149 110.363 10.3049 110.363 9.3588C110.363 8.41275 110.152 7.56858 109.73 6.82629C109.322 6.08401 108.754 5.5091 108.027 5.10157C107.299 4.67948 106.484 4.46844 105.581 4.46844C104.679 4.46844 103.864 4.67948 103.136 5.10157C102.409 5.5091 101.834 6.08401 101.412 6.82629C101.004 7.56858 100.8 8.41275 100.8 9.3588C100.8 10.3049 101.004 11.149 101.412 11.8913C101.834 12.6336 102.409 13.2158 103.136 13.6379C103.864 14.0454 104.679 14.2492 105.581 14.2492ZM124.002 17.262C122.416 17.262 120.982 16.9199 119.701 16.2359C118.435 15.5518 117.438 14.613 116.71 13.4196C115.997 12.2115 115.641 10.8579 115.641 9.3588C115.641 7.85967 115.997 6.51337 116.71 5.31989C117.438 4.11185 118.435 3.1658 119.701 2.48173C120.982 1.79766 122.416 1.45562 124.002 1.45562C125.589 1.45562 127.015 1.79766 128.281 2.48173C129.548 3.1658 130.545 4.11185 131.272 5.31989C132 6.51337 132.364 7.85967 132.364 9.3588C132.364 10.8579 132 12.2115 131.272 13.4196C130.545 14.613 129.548 15.5518 128.281 16.2359C127.015 16.9199 125.589 17.262 124.002 17.262ZM124.002 14.2492C124.905 14.2492 125.72 14.0454 126.447 13.6379C127.175 13.2158 127.743 12.6336 128.15 11.8913C128.572 11.149 128.783 10.3049 128.783 9.3588C128.783 8.41275 128.572 7.56858 128.15 6.82629C127.743 6.08401 127.175 5.5091 126.447 5.10157C125.72 4.67948 124.905 4.46844 124.002 4.46844C123.1 4.46844 122.285 4.67948 121.557 5.10157C120.829 5.5091 120.254 6.08401 119.832 6.82629C119.425 7.56858 119.221 8.41275 119.221 9.3588C119.221 10.3049 119.425 11.149 119.832 11.8913C120.254 12.6336 120.829 13.2158 121.557 13.6379C122.285 14.0454 123.1 14.2492 124.002 14.2492ZM135.022 1.71761H138.559V14.1182H146.222V17H135.022V1.71761ZM73.342 20.7176V29.7342C73.342 31.8592 72.767 33.482 71.6172 34.6028C70.4674 35.7089 68.8373 36.262 66.7269 36.262C65.6789 36.262 64.7401 36.1092 63.9105 35.8035C63.0955 35.4979 62.426 35.0685 61.902 34.5154C61.3635 35.0685 60.6867 35.4979 59.8716 35.8035C59.0566 36.1092 58.1323 36.262 57.099 36.262C54.9885 36.262 53.3584 35.7089 52.2086 34.6028C51.0588 33.482 50.4839 31.8592 50.4839 29.7342V20.7176H54.0206V29.6251C54.0206 30.8622 54.2753 31.7791 54.7848 32.3759C55.2942 32.9581 56.051 33.2492 57.0553 33.2492C59.1075 33.2492 60.1336 32.0411 60.1336 29.6251V20.7176H63.6704V29.6251C63.6704 32.0411 64.7038 33.2492 66.7705 33.2492C68.7791 33.2492 69.7833 32.0411 69.7833 29.6251V20.7176H73.342ZM83.7159 20.4556C85.1277 20.4556 86.3576 20.7322 87.4055 21.2852C88.4534 21.8383 89.2685 22.6534 89.8507 23.7304C90.4329 24.8075 90.724 26.1101 90.724 27.6383V36H87.1872V32.3322H80.2009V36H76.7078V27.6383C76.7078 26.1101 76.9989 24.8075 77.5811 23.7304C78.1633 22.6534 78.9784 21.8383 80.0263 21.2852C81.0742 20.7322 82.3041 20.4556 83.7159 20.4556ZM87.1872 29.4941V27.3109C87.1872 26.0446 86.8743 25.0913 86.2484 24.4509C85.6226 23.7959 84.7711 23.4684 83.6941 23.4684C82.6025 23.4684 81.7437 23.7959 81.1179 24.4509C80.5066 25.0913 80.2009 26.0446 80.2009 27.3109V29.4941H87.1872ZM107.455 20.7176V31.2188C107.455 33.5184 106.814 35.2795 105.534 36.5021C104.253 37.7393 102.484 38.3579 100.228 38.3579C98.933 38.3579 97.7468 38.1759 96.6698 37.8121C95.5927 37.4627 94.6758 36.9606 93.9189 36.3056L95.2944 33.6858C96.677 34.8065 98.2926 35.3669 100.141 35.3669C101.422 35.3669 102.368 35.0467 102.979 34.4063C103.605 33.7513 103.918 32.747 103.918 31.3935V30.4547C102.899 31.7064 101.458 32.3322 99.5953 32.3322C97.6595 32.3322 96.1676 31.7864 95.1197 30.6948C94.0863 29.5887 93.5696 28.0022 93.5696 25.9355V20.7176H97.1064V25.7171C97.1064 26.9106 97.3902 27.813 97.9579 28.4243C98.5255 29.0356 99.326 29.3412 100.359 29.3412C101.451 29.3412 102.317 29.021 102.957 28.3806C103.598 27.7402 103.918 26.7723 103.918 25.477V20.7176H107.455Z" fill="#72B8FF"/>
<rect x="41.5385" y="1.87495" width="1.40597" height="34.2118" fill="#72B8FF" stroke="#72B8FF" stroke-width="0.468655"/>
<path fill-rule="evenodd" clip-rule="evenodd" d="M18.3402 36.3211C27.917 36.3211 35.6805 28.5576 35.6805 18.9809C35.6805 9.40411 27.917 1.64062 18.3402 1.64062C8.76349 1.64062 1 9.40411 1 18.9809C1 28.5576 8.76349 36.3211 18.3402 36.3211ZM18.3401 34.4469C26.8815 34.4469 33.8057 27.5227 33.8057 18.9812C33.8057 10.4398 26.8815 3.51562 18.3401 3.51562C9.7987 3.51562 2.87451 10.4398 2.87451 18.9812C2.87451 27.5227 9.7987 34.4469 18.3401 34.4469Z" fill="#72B8FF"/>
<path d="M35.2118 18.9809C35.2118 28.2988 27.6582 35.8524 18.3402 35.8524V36.7898C28.1758 36.7898 36.1491 28.8164 36.1491 18.9809H35.2118ZM18.3402 2.10928C27.6582 2.10928 35.2118 9.66295 35.2118 18.9809H36.1491C36.1491 9.14528 28.1758 1.17197 18.3402 1.17197V2.10928ZM1.46866 18.9809C1.46866 9.66295 9.02232 2.10928 18.3402 2.10928V1.17197C8.50466 1.17197 0.531345 9.14528 0.531345 18.9809H1.46866ZM18.3402 35.8524C9.02232 35.8524 1.46866 28.2988 1.46866 18.9809H0.531345C0.531345 28.8164 8.50466 36.7898 18.3402 36.7898V35.8524ZM33.3371 18.9812C33.3371 27.2638 26.6227 33.9782 18.3401 33.9782V34.9155C27.1404 34.9155 34.2744 27.7815 34.2744 18.9812H33.3371ZM18.3401 3.98428C26.6227 3.98428 33.3371 10.6986 33.3371 18.9812H34.2744C34.2744 10.181 27.1404 3.04697 18.3401 3.04697V3.98428ZM3.34317 18.9812C3.34317 10.6986 10.0575 3.98428 18.3401 3.98428V3.04697C9.53987 3.04697 2.40586 10.181 2.40586 18.9812H3.34317ZM18.3401 33.9782C10.0575 33.9782 3.34317 27.2638 3.34317 18.9812H2.40586C2.40586 27.7815 9.53987 34.9155 18.3401 34.9155V33.9782Z" fill="#72B8FF"/>
<path d="M22.9898 23.3558L27.4744 18.8712L22.9898 14.3867C22.5391 13.9359 22.5391 13.2078 22.9898 12.757C23.4406 12.3062 24.1688 12.3062 24.6195 12.757L29.9247 18.0622C30.3755 18.5129 30.3755 19.2411 29.9247 19.6918L24.6195 24.997C24.1688 25.4478 23.4406 25.4478 22.9898 24.997C22.5506 24.5462 22.5391 23.8065 22.9898 23.3558Z" fill="#72B8FF"/>
<path d="M12.8568 15.3714H17.8245M12.8568 17.8553H17.8245M12.8568 20.3392H14.7197M11.6149 25.3069H19.0665C19.7524 25.3069 20.3084 24.7509 20.3084 24.065V14.1295C20.3084 13.4436 19.7524 12.8876 19.0665 12.8876H11.6149C10.929 12.8876 10.3729 13.4436 10.3729 14.1295V24.065C10.3729 24.7509 10.929 25.3069 11.6149 25.3069Z" stroke="#72B8FF" stroke-width="1.84884" stroke-linecap="round" stroke-linejoin="round"/>
</svg>
