<svg width="31" height="31" viewBox="0 0 31 31" fill="none" xmlns="http://www.w3.org/2000/svg">
<g filter="url(#filter0_dii_159_16446)">
<path d="M14.5947 3.5V2.375C14.5947 2.1875 14.4072 2 14.2197 2C14.0322 2 13.8447 2.1875 13.8447 2.375V3.5C14.2197 3.425 14.4822 3.5 14.5947 3.5Z" fill="#A18CF3"/>
<path d="M14.0695 4.25C9.71953 4.25 6.19453 7.775 6.19453 12.125V18.2373C6.19453 19.4373 5.81953 20.5623 5.14453 21.4998H23.0322C22.3572 20.5623 21.9822 19.4373 21.9822 18.2373V12.125C21.9447 7.775 18.4193 4.25 14.0695 4.25ZM7.69453 15.125C7.69453 15.3125 7.50703 15.5 7.31953 15.5C7.13203 15.5 6.94453 15.3125 6.94453 15.125V14.375C6.94453 14.1875 7.13203 14 7.31953 14C7.50703 14 7.69453 14.1875 7.69453 14.375V15.125ZM8.40703 9.125C7.54453 10.2125 7.69453 12.875 7.69453 12.875C7.69453 13.0625 7.50703 13.25 7.31953 13.25C7.13203 13.25 6.94453 13.0625 6.94453 12.875C6.94453 12.875 6.71953 9.9875 7.73203 8.75C7.84453 8.6 8.06953 8.4875 8.25703 8.6C8.44453 8.7125 8.55703 8.9375 8.40703 9.125ZM20.8193 20.75H18.5693C18.3818 20.75 18.1943 20.5625 18.1943 20.375C18.1943 20.1875 18.3818 20 18.5693 20H20.8193C21.0068 20 21.1943 20.1875 21.1943 20.375C21.1943 20.5625 21.0443 20.75 20.8193 20.75Z" fill="#A18CF3"/>
<path d="M24.7197 22.25H3.71969C3.53219 22.25 3.34469 22.4375 3.34469 22.625C3.34469 22.8125 3.53219 23 3.71969 23H24.7197C24.9072 23 25.0947 22.8125 25.0947 22.625C25.0947 22.4375 24.9447 22.25 24.7197 22.25Z" fill="#A18CF3"/>
<path d="M14.2197 24.5C14.7072 24.5 15.1197 24.2 15.2697 23.75H13.1697C13.3197 24.2 13.7322 24.5 14.2197 24.5Z" fill="#A18CF3"/>
<path d="M23.1447 9.16229C23.1822 9.31229 23.3322 9.49979 23.6322 9.38729C23.8197 9.31229 23.9322 9.12479 23.8572 8.89979C23.1447 6.83729 21.8322 5.07479 19.9947 3.79979C19.8072 3.68729 19.5822 3.72479 19.4697 3.91229C19.3572 4.09979 19.3947 4.32479 19.5822 4.43729C21.2697 5.59979 22.5072 7.21229 23.1447 9.16229Z" fill="#A18CF3"/>
<path d="M4.46959 9.50039C4.43209 9.68789 4.54459 9.87539 4.73209 9.95039C4.91959 10.0629 5.14459 9.87539 5.18209 9.72539C5.74459 7.58789 7.05709 5.71289 8.89459 4.43767C9.08209 4.32517 9.11959 4.10017 8.96959 3.91267C8.85709 3.72517 8.63209 3.68767 8.44459 3.83767C6.49459 5.18767 5.06959 7.2131 4.46959 9.50039Z" fill="#A18CF3"/>
<path d="M25.2824 8.45C24.4574 6.05 22.9574 4.025 20.8574 2.56229C20.6699 2.44979 20.4449 2.48729 20.3324 2.63729C20.2199 2.82479 20.2574 3.04979 20.4074 3.16229C22.3574 4.51229 23.7824 6.42479 24.5324 8.67457C24.5699 8.82457 24.7949 9.01207 25.0199 8.89957C25.2449 8.82457 25.3574 8.6375 25.2824 8.45Z" fill="#A18CF3"/>
<path d="M3.71969 9.35C4.43219 6.8 5.89469 4.66229 8.03197 3.2C8.21947 3.0875 8.25697 2.8625 8.14447 2.675C8.03197 2.4875 7.80697 2.45 7.61947 2.5625C5.36947 4.1375 3.71947 6.4625 3.00719 9.12479C2.96969 9.31229 3.08219 9.49979 3.26969 9.57479C3.45719 9.68729 3.68219 9.5 3.71969 9.35Z" fill="#A18CF3"/>
</g>
<defs>
<filter id="filter0_dii_159_16446" x="0" y="0" width="30.3055" height="30.5" filterUnits="userSpaceOnUse" color-interpolation-filters="sRGB">
<feFlood flood-opacity="0" result="BackgroundImageFix"/>
<feColorMatrix in="SourceAlpha" type="matrix" values="0 0 0 0 0 0 0 0 0 0 0 0 0 0 0 0 0 0 127 0" result="hardAlpha"/>
<feOffset dx="1" dy="2"/>
<feGaussianBlur stdDeviation="2"/>
<feComposite in2="hardAlpha" operator="out"/>
<feColorMatrix type="matrix" values="0 0 0 0 0.227451 0 0 0 0 0.368627 0 0 0 0 1 0 0 0 0.25 0"/>
<feBlend mode="normal" in2="BackgroundImageFix" result="effect1_dropShadow_159_16446"/>
<feBlend mode="normal" in="SourceGraphic" in2="effect1_dropShadow_159_16446" result="shape"/>
<feColorMatrix in="SourceAlpha" type="matrix" values="0 0 0 0 0 0 0 0 0 0 0 0 0 0 0 0 0 0 127 0" result="hardAlpha"/>
<feOffset dx="4" dy="1"/>
<feGaussianBlur stdDeviation="2"/>
<feComposite in2="hardAlpha" operator="arithmetic" k2="-1" k3="1"/>
<feColorMatrix type="matrix" values="0 0 0 0 0.16724 0 0 0 0 0.0969792 0 0 0 0 0.2375 0 0 0 0.25 0"/>
<feBlend mode="normal" in2="shape" result="effect2_innerShadow_159_16446"/>
<feColorMatrix in="SourceAlpha" type="matrix" values="0 0 0 0 0 0 0 0 0 0 0 0 0 0 0 0 0 0 127 0" result="hardAlpha"/>
<feOffset dx="-3" dy="2"/>
<feGaussianBlur stdDeviation="2"/>
<feComposite in2="hardAlpha" operator="arithmetic" k2="-1" k3="1"/>
<feColorMatrix type="matrix" values="0 0 0 0 1 0 0 0 0 1 0 0 0 0 1 0 0 0 0.25 0"/>
<feBlend mode="normal" in2="effect2_innerShadow_159_16446" result="effect3_innerShadow_159_16446"/>
</filter>
</defs>
</svg>
