<svg width="198" height="80" viewBox="0 0 198 80" fill="none" xmlns="http://www.w3.org/2000/svg">
<path d="M14.1759 33.0635C11.6629 33.0419 9.22848 32.6879 6.87258 32.0015C4.54722 31.2851 2.6777 30.3758 1.26403 29.2736L3.80947 23.7544C5.16336 24.7652 6.7763 25.5815 8.64829 26.2031C10.5203 26.8248 12.3949 27.1437 14.2721 27.1598C16.3612 27.1777 17.9079 26.8882 18.9123 26.2912C19.9169 25.664 20.4236 24.8357 20.4324 23.8062C20.4389 23.0493 20.1415 22.426 19.5401 21.9364C18.9693 21.4167 18.2158 21.0015 17.2798 20.6907C16.3741 20.3801 15.1356 20.0364 13.5643 19.6596C11.1471 19.0635 9.16887 18.4712 7.62967 17.8827C6.09047 17.2942 4.7662 16.3593 3.65687 15.078C2.5778 13.797 2.04737 12.0968 2.06557 9.97739C2.08143 8.13048 2.5953 6.46952 3.60718 4.99452C4.61933 3.48924 6.12832 2.30616 8.13415 1.44527C10.1703 0.584652 12.6416 0.16682 15.5482 0.191775C17.5768 0.209192 19.5579 0.468436 21.4915 0.969508C23.425 1.47058 25.1146 2.18151 26.5601 3.10231L24.2413 8.66895C21.3188 6.97849 18.389 6.12065 15.4521 6.09544C13.3933 6.07776 11.8614 6.39768 10.8566 7.0552C9.88196 7.71298 9.38999 8.58686 9.38063 9.67684C9.37127 10.7668 9.92438 11.5891 11.04 12.1437C12.1861 12.6683 13.9226 13.198 16.2495 13.7327C18.6668 14.3288 20.645 14.9211 22.1842 15.5096C23.7234 16.0981 25.0326 17.0177 26.112 18.2685C27.2215 19.5194 27.7673 21.2046 27.7491 23.324C27.7335 25.1407 27.2044 26.8015 26.162 28.3065C25.1501 29.7815 23.6261 30.9493 21.59 31.81C19.5539 32.6706 17.0826 33.0884 14.1759 33.0635ZM46.8621 33.3441C43.6224 33.3163 40.6915 32.5947 38.0693 31.1793C35.4777 29.7339 33.4356 27.7634 31.9431 25.2677C30.4811 22.7419 29.7636 19.9046 29.7906 16.7558C29.8177 13.607 30.5836 10.7975 32.0885 8.32756C33.624 5.82755 35.6996 3.89234 38.3154 2.52195C40.9617 1.12154 43.9199 0.435368 47.1898 0.463443C49.945 0.487099 52.4236 0.99285 54.6255 1.9807C56.8577 2.9688 58.7229 4.37767 60.2212 6.2073L55.4605 10.5267C53.3322 8.02548 50.6784 6.76124 47.4993 6.73394C45.5313 6.71705 43.7714 7.14099 42.2198 8.00577C40.6684 8.84027 39.447 10.0258 38.5557 11.5624C37.6947 13.0993 37.2557 14.8517 37.2388 16.8197C37.2219 18.7878 37.6307 20.5475 38.4652 22.0989C39.33 23.6506 40.5307 24.8721 42.0673 25.7633C43.6042 26.6244 45.3566 27.0633 47.3246 27.0802C50.5037 27.1075 53.1789 25.8739 55.3502 23.3793L60.036 27.7798C58.5063 29.6137 56.617 31.0055 54.3682 31.9551C52.1193 32.9048 49.6173 33.3677 46.8621 33.3441ZM93.3463 1.40476L93.0733 33.1958L85.7159 33.1327L85.8279 20.0983L71.3856 19.9743L71.2737 33.0087L63.9164 32.9455L64.1893 1.15443L71.5467 1.21759L71.439 13.7524L85.8813 13.8764L85.9889 1.34159L93.3463 1.40476ZM114.942 33.9286C111.642 33.9003 108.666 33.1632 106.014 31.7173C103.392 30.2716 101.335 28.3009 99.842 25.8052C98.38 23.2795 97.6624 20.4573 97.6891 17.3388C97.7159 14.2202 98.4818 11.4259 99.9866 8.95593C101.522 6.45592 103.613 4.50571 106.259 3.1053C108.936 1.70515 111.924 1.01924 115.225 1.04758C118.525 1.07591 121.486 1.8129 124.108 3.25854C126.73 4.70419 128.787 6.69001 130.279 9.21602C131.772 11.7117 132.504 14.5189 132.478 17.6374C132.451 20.756 131.67 23.5653 130.134 26.0653C128.599 28.535 126.508 30.4701 123.862 31.8705C121.216 33.2709 118.242 33.957 114.942 33.9286ZM114.996 27.6612C116.873 27.6774 118.572 27.268 120.094 26.4333C121.615 25.5682 122.806 24.3673 123.667 22.8304C124.558 21.2938 125.013 19.5415 125.029 17.5735C125.046 15.6055 124.622 13.8456 123.758 12.2939C122.923 10.7425 121.753 9.53645 120.246 8.67569C118.74 7.78465 117.048 7.33107 115.171 7.31496C113.294 7.29884 111.594 7.7233 110.073 8.58834C108.552 9.42311 107.346 10.6088 106.454 12.1454C105.593 13.6822 105.154 15.4347 105.137 17.4027C105.12 19.3707 105.529 21.1304 106.364 22.6819C107.229 24.2335 108.414 25.4549 109.92 26.3459C111.427 27.2067 113.119 27.6451 114.996 27.6612ZM152.218 34.2487C148.918 34.2203 145.941 33.4832 143.289 32.0373C140.667 30.5917 138.61 28.621 137.118 26.1252C135.656 23.5995 134.938 20.7773 134.965 17.6588C134.992 14.5402 135.757 11.746 137.262 9.27598C138.798 6.77597 140.889 4.82575 143.535 3.42534C146.212 2.02519 149.2 1.33928 152.5 1.36762C155.8 1.39595 158.761 2.13294 161.383 3.57858C164.005 5.02423 166.062 7.01005 167.555 9.53606C169.047 12.0318 169.78 14.8389 169.753 17.9575C169.726 21.076 168.945 23.8853 167.41 26.3853C165.875 28.8551 163.784 30.7901 161.138 32.1905C158.491 33.591 155.518 34.277 152.218 34.2487ZM152.272 27.9813C154.149 27.9974 155.848 27.5881 157.369 26.7533C158.891 25.8883 160.082 24.6873 160.943 23.1505C161.834 21.6139 162.288 19.8615 162.305 17.8935C162.322 15.9255 161.898 14.1657 161.033 12.614C160.199 11.0626 159.028 9.85649 157.522 8.99573C156.015 8.10469 154.324 7.65111 152.446 7.635C150.569 7.61888 148.87 8.04334 147.348 8.90838C145.827 9.74315 144.621 10.9288 143.73 12.4654C142.869 14.0023 142.43 15.7547 142.413 17.7227C142.396 19.6908 142.805 21.4505 143.639 23.0019C144.504 24.5536 145.69 25.7749 147.196 26.666C148.703 27.5267 150.394 27.9652 152.272 27.9813ZM174.375 2.10046L181.732 2.16363L181.511 27.9598L197.452 28.0967L197.4 34.0916L174.102 33.8915L174.375 2.10046ZM50.9338 42.0421L50.7727 60.7989C50.7348 65.2193 49.5099 68.585 47.0979 70.8958C44.6863 73.1763 41.2854 74.2977 36.8952 74.26C34.7152 74.2413 32.7651 73.9066 31.0447 73.256C29.3547 72.6056 27.9696 71.7005 26.8895 70.5406C25.7593 71.6815 24.3438 72.5626 22.6428 73.1839C20.9418 73.8051 19.0165 74.1065 16.8668 74.0881C12.4766 74.0504 9.09544 72.8707 6.7233 70.5491C4.35141 68.1972 3.18445 64.8111 3.2224 60.3906L3.38344 41.6339L10.7408 41.697L10.5817 60.2267C10.5596 62.8002 11.0731 64.7123 12.1221 65.9627C13.1714 67.1829 14.7407 67.802 16.8298 67.8199C21.0989 67.8566 23.255 65.3619 23.2981 60.3359L23.4572 41.8062L30.8146 41.8694L30.6555 60.399C30.6123 65.4251 32.7404 67.9565 37.0398 67.9934C41.2181 68.0293 43.3288 65.5342 43.3719 60.5082L43.531 41.9786L50.9338 42.0421ZM71.4748 41.6735C74.4117 41.6987 76.9652 42.2959 79.1353 43.4652C81.3053 44.6344 82.9863 46.3445 84.1781 48.5954C85.37 50.8463 85.9523 53.5613 85.925 56.7404L85.7756 74.1347L78.4183 74.0715L78.4838 66.4417L63.9507 66.3169L63.8852 73.9467L56.6187 73.8843L56.768 56.4901C56.7953 53.311 57.4241 50.6064 58.6545 48.3763C59.8848 46.1461 61.5949 44.4652 63.7847 43.3334C65.9745 42.2015 68.5379 41.6482 71.4748 41.6735ZM78.5345 60.5376L78.5735 55.996C78.5961 53.3619 77.9622 51.3732 76.6717 50.0298C75.3815 48.6561 73.6161 47.9597 71.3756 47.9405C69.1048 47.921 67.3126 48.5869 65.999 49.9381C64.7159 51.2594 64.063 53.2371 64.0404 55.8712L64.0014 60.4128L78.5345 60.5376ZM119.809 42.6335L119.621 64.4785C119.58 69.2623 118.216 72.9144 115.53 75.4348C112.844 77.9855 109.154 79.2407 104.461 79.2004C101.766 79.1772 99.302 78.7776 97.068 78.0014C94.8337 77.2555 92.9352 76.1946 91.3725 74.8186L94.2805 69.3933C97.1368 71.7493 100.488 72.9438 104.333 72.9769C106.997 72.9997 108.971 72.3505 110.254 71.0292C111.568 69.678 112.237 67.5944 112.261 64.7786L112.277 62.8258C110.136 65.4114 107.127 66.6876 103.252 66.6543C99.2247 66.6197 96.1311 65.4577 93.9706 63.1682C91.8407 60.8487 90.7942 57.5392 90.8311 53.2399L90.9243 42.3855L98.2816 42.4486L98.1923 52.8489C98.171 55.3316 98.7453 57.2139 99.9152 58.4956C101.085 59.7774 102.745 60.4275 104.895 60.446C107.165 60.4655 108.973 59.8149 110.316 58.4941C111.66 57.1733 112.343 55.1656 112.366 52.471L112.451 42.5703L119.809 42.6335Z" fill="#53A8FF"/>
</svg>
