<svg width="22" height="25" viewBox="0 0 22 25" fill="none" xmlns="http://www.w3.org/2000/svg">
<path d="M0.348853 19.968H0.333496V4.608C0.333496 3.38587 0.819027 2.2139 1.68312 1.34962C2.54721 0.485531 3.71937 0 4.9415 0H20.3015C20.7628 0 21.1997 0.207141 21.4915 0.56448C21.7833 0.921801 21.899 1.39127 21.8067 1.84325C21.7261 2.19771 21.5258 2.51342 21.2393 2.73719C20.9531 2.96112 20.5983 3.07933 20.2349 3.07201H4.94161C4.47912 3.07165 4.04127 3.27951 3.74911 3.63809C3.45714 3.99666 3.34232 4.46771 3.43625 4.92042C3.51839 5.27399 3.71982 5.58863 4.00644 5.81148C4.29307 6.03434 4.64768 6.15166 5.01074 6.14416H20.3017C20.709 6.14416 21.0997 6.30595 21.3878 6.59398C21.6758 6.88202 21.8376 7.27275 21.8376 7.68006V23.0401C21.8376 23.4474 21.6758 23.8381 21.3878 24.1261C21.0998 24.4144 20.709 24.5761 20.3017 24.5761H4.94171C3.72224 24.572 2.55405 24.0847 1.69316 23.2209C0.832454 22.3574 0.349071 21.1876 0.349071 19.9681L0.348853 19.968Z" fill="#E0E0E0"/>
</svg>
