<svg width="24" height="25" viewBox="0 0 24 25" fill="none" xmlns="http://www.w3.org/2000/svg">
<path d="M5.64058 0.333008C5.35772 0.333008 5.12863 0.588906 5.12863 0.904387V5.76149C5.12863 6.07698 5.35791 6.33287 5.64058 6.33287C5.92344 6.33287 6.15253 6.07697 6.15253 5.76149V0.904387C6.15253 0.588697 5.92325 0.333008 5.64058 0.333008ZM17.4166 0.333008C17.1337 0.333008 16.9046 0.588906 16.9046 0.904387V5.76149C16.9046 6.07698 17.1339 6.33287 17.4166 6.33287C17.6994 6.33287 17.9285 6.07697 17.9285 5.76149V0.904387C17.9285 0.588697 17.6993 0.333008 17.4166 0.333008ZM2.05658 2.0474C0.918385 2.0472 0.000488281 3.07179 0.000488281 4.34194V9.47563H23.0405V4.34194C23.0405 3.07164 22.1226 2.0472 20.9844 2.0472H18.4403V4.4846C18.7542 4.79849 18.9523 5.25389 18.9523 5.76128C18.9523 6.70817 18.2646 7.47568 17.4162 7.47568C16.5678 7.47568 15.8801 6.70817 15.8801 5.76128C15.8801 5.25387 16.0781 4.79848 16.392 4.4846V2.0472H6.6558V4.47587C6.97473 4.78997 7.1758 5.24955 7.1758 5.76154C7.1758 6.70843 6.48812 7.47593 5.63971 7.47593C4.7913 7.47593 4.10362 6.70843 4.10362 5.76154C4.10362 5.25851 4.29844 4.8073 4.60753 4.49358V2.0472L2.05658 2.0474ZM0.000488281 10.6188V22.0383C0.000488281 23.3084 0.91834 24.333 2.05658 24.333H20.9846C22.1226 24.333 23.0407 23.3086 23.0407 22.0383V10.6188H0.000488281Z" fill="#E0E0E0"/>
</svg>
