<svg width="27" height="24" viewBox="0 0 27 24" fill="none" xmlns="http://www.w3.org/2000/svg">
<path fill-rule="evenodd" clip-rule="evenodd" d="M13.4417 11.4588C12.0284 11.4588 10.8826 10.2871 10.8826 8.84169C10.8826 7.39629 12.0284 6.22456 13.4417 6.22456C14.8549 6.22456 16.0006 7.39629 16.0006 8.84169C16.0006 10.2871 14.8549 11.4588 13.4417 11.4588ZM26.9879 10.9241C26.9271 10.3385 26.6442 9.81573 26.1914 9.45206L15.1586 0.588404C14.1819 -0.196135 12.8179 -0.196135 11.8412 0.588404L0.808372 9.45206C0.3558 9.81573 0.0729131 10.3385 0.0120668 10.9241C-0.048577 11.5095 0.120737 12.0814 0.488934 12.5348C1.21345 13.4264 2.53972 13.5597 3.44562 12.832L3.97429 12.4073V21.5476C3.97429 22.9 5.0499 24 6.37217 24H10.1511C10.457 24 10.7048 23.7465 10.7048 23.4339V19.9719C10.7048 18.4219 11.9379 17.1606 13.4536 17.1606C14.9694 17.1606 16.2024 18.4219 16.2024 19.9719V23.4339C16.2024 23.7465 16.4505 24 16.7561 24H20.6278C21.9499 24 23.0256 22.8999 23.0256 21.5476V12.4073L23.5541 12.832C24.4602 13.5599 25.7867 13.4264 26.511 12.5348C26.8792 12.0814 27.0486 11.5095 26.9879 10.9241Z" fill="#E0E0E0"/>
</svg>
