<svg width="22" height="25" viewBox="0 0 22 25" fill="none" xmlns="http://www.w3.org/2000/svg">
<path d="M11.0338 3.05176e-05C5.12021 3.05176e-05 0.333008 4.78723 0.333008 10.7008V22.8608C0.333008 24.0896 1.76656 24.7808 2.71372 24.0128L5.93927 21.3762H11.0337C16.9473 21.3762 21.7345 16.589 21.7345 10.6754C21.7345 4.76177 16.9473 0.000167672 11.0337 0.000167672L11.0338 3.05176e-05ZM6.93772 11.6736C6.93772 12.3136 6.42576 12.8256 5.78576 12.8256C5.14576 12.8256 4.63381 12.3136 4.63381 11.6736V10.2401C4.63381 9.60008 5.14576 9.08812 5.78576 9.08812C6.42576 9.08812 6.93772 9.60008 6.93772 10.2401V11.6736ZM12.1857 11.6736C12.1857 12.3136 11.6738 12.8256 11.0338 12.8256C10.3938 12.8256 9.88181 12.3136 9.88181 11.6736V10.2401C9.88181 9.60008 10.3938 9.08812 11.0338 9.08812C11.6738 9.08812 12.1857 9.60008 12.1857 10.2401V11.6736ZM17.4593 11.6736C17.4593 12.3136 16.9474 12.8256 16.3074 12.8256C15.6674 12.8256 15.1554 12.3136 15.1554 11.6736V10.2401C15.1554 9.60008 15.6674 9.08812 16.3074 9.08812C16.9474 9.08812 17.4593 9.60008 17.4593 10.2401V11.6736Z" fill="#E0E0E0"/>
</svg>
