<svg width="25" height="24" viewBox="0 0 25 24" fill="none" xmlns="http://www.w3.org/2000/svg">
<path fill-rule="evenodd" clip-rule="evenodd" d="M23.5547 1.00517C22.9125 0.361413 22.0404 -0.000192779 21.131 7.71029e-08H3.97718C3.06835 0.00207179 2.19725 0.363867 1.55446 1.00608C0.911913 1.64849 0.549926 2.51919 0.547852 3.42754V20.5725C0.549924 21.4808 0.911908 22.3515 1.55446 22.9939C2.1972 23.6361 3.06835 23.9979 3.97718 24H21.131C22.0399 23.9979 22.911 23.6361 23.5537 22.9939C24.1963 22.3515 24.5583 21.4808 24.5604 20.5725V3.42754C24.5605 2.51861 24.1987 1.64699 23.5547 1.00517ZM7.4066 20.5724C7.4066 20.8778 7.2436 21.16 6.97885 21.3127C6.7141 21.4654 6.38811 21.4654 6.12338 21.3127C5.85881 21.16 5.69563 20.8778 5.69563 20.5724V3.42744C5.69563 3.12196 5.85881 2.83981 6.12338 2.68712C6.38813 2.53437 6.71411 2.53437 6.97885 2.68712C7.24359 2.83986 7.4066 3.12198 7.4066 3.42744V20.5724ZM21.5966 11.3697L20.0132 13.7996L19.8632 16.6946V16.6947C19.8412 16.9479 19.7078 17.178 19.499 17.323C19.29 17.4679 19.0277 17.5125 18.7825 17.4447L15.9836 16.6947L13.1846 17.4447H13.1848C12.9272 17.5174 12.6504 17.4677 12.4344 17.3096C12.2269 17.1543 12.0981 16.9158 12.0817 16.6573L11.939 13.7623L10.3482 11.3325V11.3323C10.2041 11.1098 10.1683 10.8341 10.2508 10.5823C10.3317 10.3367 10.5191 10.141 10.7609 10.0497L13.4773 9.01476L15.2933 6.7647C15.4616 6.57166 15.705 6.46073 15.9611 6.46073C16.2172 6.46073 16.4608 6.57166 16.629 6.7647L18.4524 9.01476L21.1614 10.0497C21.4037 10.1416 21.5914 10.3382 21.6716 10.5846C21.7519 10.8309 21.7159 11.1004 21.574 11.3172L21.5966 11.3697Z" fill="#E0E0E0"/>
</svg>
